<mxfile host="Electron" modified="2024-05-28T16:50:21.572Z" agent="Mozilla/5.0 (X11; Linux x86_64) AppleWebKit/537.36 (KHTML, like Gecko) draw.io/24.1.0 Chrome/120.0.6099.109 Electron/28.1.0 Safari/537.36" etag="0IfOwE0oIeaXCuc2NuTg" version="24.1.0" type="device">
  <diagram id="C5RBs43oDa-KdzZeNtuy" name="Page-1">
    <mxGraphModel dx="1509" dy="916" grid="0" gridSize="10" guides="1" tooltips="1" connect="1" arrows="1" fold="1" page="0" pageScale="1" pageWidth="827" pageHeight="1169" math="0" shadow="0">
      <root>
        <mxCell id="WIyWlLk6GJQsqaUBKTNV-0" />
        <mxCell id="WIyWlLk6GJQsqaUBKTNV-1" parent="WIyWlLk6GJQsqaUBKTNV-0" />
        <mxCell id="9jqqhzqyvr-DAFX3ICBT-16" style="edgeStyle=orthogonalEdgeStyle;rounded=0;orthogonalLoop=1;jettySize=auto;html=1;exitX=0.5;exitY=1;exitDx=0;exitDy=0;entryX=0.5;entryY=0;entryDx=0;entryDy=0;" edge="1" parent="WIyWlLk6GJQsqaUBKTNV-1" source="WIyWlLk6GJQsqaUBKTNV-3" target="9jqqhzqyvr-DAFX3ICBT-10">
          <mxGeometry relative="1" as="geometry" />
        </mxCell>
        <mxCell id="WIyWlLk6GJQsqaUBKTNV-3" value="Получение данных с IMU" style="rounded=1;whiteSpace=wrap;html=1;fontSize=12;glass=0;strokeWidth=1;shadow=0;" parent="WIyWlLk6GJQsqaUBKTNV-1" vertex="1">
          <mxGeometry x="329" y="280" width="140" height="60" as="geometry" />
        </mxCell>
        <mxCell id="9jqqhzqyvr-DAFX3ICBT-15" style="edgeStyle=orthogonalEdgeStyle;rounded=0;orthogonalLoop=1;jettySize=auto;html=1;exitX=0.5;exitY=1;exitDx=0;exitDy=0;entryX=0.5;entryY=0;entryDx=0;entryDy=0;" edge="1" parent="WIyWlLk6GJQsqaUBKTNV-1" source="9jqqhzqyvr-DAFX3ICBT-10" target="9jqqhzqyvr-DAFX3ICBT-14">
          <mxGeometry relative="1" as="geometry" />
        </mxCell>
        <mxCell id="9jqqhzqyvr-DAFX3ICBT-10" value="Фильтрация&amp;nbsp;" style="rounded=1;whiteSpace=wrap;html=1;fontSize=12;glass=0;strokeWidth=1;shadow=0;" vertex="1" parent="WIyWlLk6GJQsqaUBKTNV-1">
          <mxGeometry x="329" y="380" width="140" height="60" as="geometry" />
        </mxCell>
        <mxCell id="9jqqhzqyvr-DAFX3ICBT-18" style="edgeStyle=orthogonalEdgeStyle;rounded=0;orthogonalLoop=1;jettySize=auto;html=1;exitX=0.5;exitY=1;exitDx=0;exitDy=0;entryX=0.5;entryY=0;entryDx=0;entryDy=0;" edge="1" parent="WIyWlLk6GJQsqaUBKTNV-1" source="9jqqhzqyvr-DAFX3ICBT-14" target="9jqqhzqyvr-DAFX3ICBT-17">
          <mxGeometry relative="1" as="geometry" />
        </mxCell>
        <mxCell id="9jqqhzqyvr-DAFX3ICBT-14" value="Рассчет положение" style="rounded=1;whiteSpace=wrap;html=1;fontSize=12;glass=0;strokeWidth=1;shadow=0;" vertex="1" parent="WIyWlLk6GJQsqaUBKTNV-1">
          <mxGeometry x="329" y="470" width="140" height="60" as="geometry" />
        </mxCell>
        <mxCell id="9jqqhzqyvr-DAFX3ICBT-20" style="edgeStyle=orthogonalEdgeStyle;rounded=0;orthogonalLoop=1;jettySize=auto;html=1;exitX=0.5;exitY=1;exitDx=0;exitDy=0;entryX=0.5;entryY=0;entryDx=0;entryDy=0;" edge="1" parent="WIyWlLk6GJQsqaUBKTNV-1" source="9jqqhzqyvr-DAFX3ICBT-17" target="9jqqhzqyvr-DAFX3ICBT-19">
          <mxGeometry relative="1" as="geometry" />
        </mxCell>
        <mxCell id="9jqqhzqyvr-DAFX3ICBT-17" value="Рассчет новой скорсти" style="rounded=1;whiteSpace=wrap;html=1;fontSize=12;glass=0;strokeWidth=1;shadow=0;" vertex="1" parent="WIyWlLk6GJQsqaUBKTNV-1">
          <mxGeometry x="333" y="560" width="140" height="60" as="geometry" />
        </mxCell>
        <mxCell id="9jqqhzqyvr-DAFX3ICBT-22" style="edgeStyle=orthogonalEdgeStyle;rounded=0;orthogonalLoop=1;jettySize=auto;html=1;exitX=1;exitY=0.5;exitDx=0;exitDy=0;entryX=0.5;entryY=0;entryDx=0;entryDy=0;" edge="1" parent="WIyWlLk6GJQsqaUBKTNV-1" source="9jqqhzqyvr-DAFX3ICBT-19" target="9jqqhzqyvr-DAFX3ICBT-23">
          <mxGeometry relative="1" as="geometry">
            <mxPoint x="539" y="740" as="targetPoint" />
          </mxGeometry>
        </mxCell>
        <mxCell id="9jqqhzqyvr-DAFX3ICBT-25" style="edgeStyle=orthogonalEdgeStyle;rounded=0;orthogonalLoop=1;jettySize=auto;html=1;exitX=0;exitY=0.5;exitDx=0;exitDy=0;entryX=0.5;entryY=0;entryDx=0;entryDy=0;" edge="1" parent="WIyWlLk6GJQsqaUBKTNV-1" source="9jqqhzqyvr-DAFX3ICBT-19" target="9jqqhzqyvr-DAFX3ICBT-24">
          <mxGeometry relative="1" as="geometry" />
        </mxCell>
        <mxCell id="9jqqhzqyvr-DAFX3ICBT-19" value="Направление = Вперед" style="rhombus;whiteSpace=wrap;html=1;shadow=0;fontFamily=Helvetica;fontSize=9;align=center;strokeWidth=1;spacing=6;spacingTop=-4;" vertex="1" parent="WIyWlLk6GJQsqaUBKTNV-1">
          <mxGeometry x="331.75" y="650" width="141.25" height="80" as="geometry" />
        </mxCell>
        <mxCell id="9jqqhzqyvr-DAFX3ICBT-27" style="edgeStyle=orthogonalEdgeStyle;rounded=0;orthogonalLoop=1;jettySize=auto;html=1;exitX=1;exitY=0.5;exitDx=0;exitDy=0;entryX=0.5;entryY=0;entryDx=0;entryDy=0;" edge="1" parent="WIyWlLk6GJQsqaUBKTNV-1" source="9jqqhzqyvr-DAFX3ICBT-23" target="WIyWlLk6GJQsqaUBKTNV-3">
          <mxGeometry relative="1" as="geometry" />
        </mxCell>
        <mxCell id="9jqqhzqyvr-DAFX3ICBT-30" style="edgeStyle=orthogonalEdgeStyle;rounded=0;orthogonalLoop=1;jettySize=auto;html=1;exitX=0.5;exitY=1;exitDx=0;exitDy=0;entryX=0.5;entryY=0;entryDx=0;entryDy=0;" edge="1" parent="WIyWlLk6GJQsqaUBKTNV-1" source="9jqqhzqyvr-DAFX3ICBT-23" target="9jqqhzqyvr-DAFX3ICBT-28">
          <mxGeometry relative="1" as="geometry">
            <mxPoint x="529" y="860" as="targetPoint" />
            <Array as="points">
              <mxPoint x="500" y="810" />
              <mxPoint x="403" y="810" />
            </Array>
          </mxGeometry>
        </mxCell>
        <mxCell id="9jqqhzqyvr-DAFX3ICBT-23" value="Дистанция &amp;lt; целевой" style="rhombus;whiteSpace=wrap;html=1;shadow=0;fontFamily=Helvetica;fontSize=9;align=center;strokeWidth=1;spacing=6;spacingTop=-4;" vertex="1" parent="WIyWlLk6GJQsqaUBKTNV-1">
          <mxGeometry x="429" y="720" width="141.25" height="80" as="geometry" />
        </mxCell>
        <mxCell id="9jqqhzqyvr-DAFX3ICBT-26" style="edgeStyle=orthogonalEdgeStyle;rounded=0;orthogonalLoop=1;jettySize=auto;html=1;exitX=0;exitY=0.5;exitDx=0;exitDy=0;entryX=0.5;entryY=0;entryDx=0;entryDy=0;" edge="1" parent="WIyWlLk6GJQsqaUBKTNV-1" source="9jqqhzqyvr-DAFX3ICBT-24" target="WIyWlLk6GJQsqaUBKTNV-3">
          <mxGeometry relative="1" as="geometry">
            <Array as="points">
              <mxPoint x="209" y="760" />
              <mxPoint x="209" y="260" />
              <mxPoint x="399" y="260" />
            </Array>
          </mxGeometry>
        </mxCell>
        <mxCell id="9jqqhzqyvr-DAFX3ICBT-29" style="edgeStyle=orthogonalEdgeStyle;rounded=0;orthogonalLoop=1;jettySize=auto;html=1;exitX=0.5;exitY=1;exitDx=0;exitDy=0;entryX=0.5;entryY=0;entryDx=0;entryDy=0;" edge="1" parent="WIyWlLk6GJQsqaUBKTNV-1" source="9jqqhzqyvr-DAFX3ICBT-24" target="9jqqhzqyvr-DAFX3ICBT-28">
          <mxGeometry relative="1" as="geometry">
            <Array as="points">
              <mxPoint x="300" y="810" />
              <mxPoint x="403" y="810" />
            </Array>
          </mxGeometry>
        </mxCell>
        <mxCell id="9jqqhzqyvr-DAFX3ICBT-24" value="Дистанция &amp;gt; целевой" style="rhombus;whiteSpace=wrap;html=1;shadow=0;fontFamily=Helvetica;fontSize=9;align=center;strokeWidth=1;spacing=6;spacingTop=-4;" vertex="1" parent="WIyWlLk6GJQsqaUBKTNV-1">
          <mxGeometry x="229" y="720" width="141.25" height="80" as="geometry" />
        </mxCell>
        <mxCell id="9jqqhzqyvr-DAFX3ICBT-31" style="edgeStyle=orthogonalEdgeStyle;rounded=0;orthogonalLoop=1;jettySize=auto;html=1;exitX=0.5;exitY=1;exitDx=0;exitDy=0;entryX=0.5;entryY=0;entryDx=0;entryDy=0;" edge="1" parent="WIyWlLk6GJQsqaUBKTNV-1" source="9jqqhzqyvr-DAFX3ICBT-28" target="WIyWlLk6GJQsqaUBKTNV-3">
          <mxGeometry relative="1" as="geometry">
            <Array as="points">
              <mxPoint x="402" y="910" />
              <mxPoint x="619" y="910" />
              <mxPoint x="619" y="230" />
              <mxPoint x="399" y="230" />
            </Array>
          </mxGeometry>
        </mxCell>
        <mxCell id="9jqqhzqyvr-DAFX3ICBT-28" value="Сброс" style="rounded=1;whiteSpace=wrap;html=1;fontSize=12;glass=0;strokeWidth=1;shadow=0;" vertex="1" parent="WIyWlLk6GJQsqaUBKTNV-1">
          <mxGeometry x="332.38" y="830" width="140" height="60" as="geometry" />
        </mxCell>
        <mxCell id="9jqqhzqyvr-DAFX3ICBT-33" style="edgeStyle=orthogonalEdgeStyle;rounded=0;orthogonalLoop=1;jettySize=auto;html=1;exitX=0.5;exitY=1;exitDx=0;exitDy=0;entryX=0.5;entryY=0;entryDx=0;entryDy=0;" edge="1" parent="WIyWlLk6GJQsqaUBKTNV-1" source="9jqqhzqyvr-DAFX3ICBT-32" target="WIyWlLk6GJQsqaUBKTNV-3">
          <mxGeometry relative="1" as="geometry" />
        </mxCell>
        <mxCell id="9jqqhzqyvr-DAFX3ICBT-32" value="Старт" style="rounded=1;whiteSpace=wrap;html=1;fontSize=12;glass=0;strokeWidth=1;shadow=0;" vertex="1" parent="WIyWlLk6GJQsqaUBKTNV-1">
          <mxGeometry x="338.62" y="160" width="120" height="40" as="geometry" />
        </mxCell>
        <mxCell id="9jqqhzqyvr-DAFX3ICBT-34" value="Да" style="text;html=1;align=center;verticalAlign=middle;whiteSpace=wrap;rounded=0;" vertex="1" parent="WIyWlLk6GJQsqaUBKTNV-1">
          <mxGeometry x="452" y="661" width="60" height="30" as="geometry" />
        </mxCell>
        <mxCell id="9jqqhzqyvr-DAFX3ICBT-35" value="Нет" style="text;html=1;align=center;verticalAlign=middle;whiteSpace=wrap;rounded=0;" vertex="1" parent="WIyWlLk6GJQsqaUBKTNV-1">
          <mxGeometry x="299" y="661" width="60" height="30" as="geometry" />
        </mxCell>
        <mxCell id="9jqqhzqyvr-DAFX3ICBT-37" value="Нет" style="text;html=1;align=center;verticalAlign=middle;whiteSpace=wrap;rounded=0;" vertex="1" parent="WIyWlLk6GJQsqaUBKTNV-1">
          <mxGeometry x="216" y="770" width="60" height="30" as="geometry" />
        </mxCell>
        <mxCell id="9jqqhzqyvr-DAFX3ICBT-38" value="Нет" style="text;html=1;align=center;verticalAlign=middle;whiteSpace=wrap;rounded=0;" vertex="1" parent="WIyWlLk6GJQsqaUBKTNV-1">
          <mxGeometry x="523" y="770" width="60" height="30" as="geometry" />
        </mxCell>
        <mxCell id="9jqqhzqyvr-DAFX3ICBT-39" value="Да" style="text;html=1;align=center;verticalAlign=middle;whiteSpace=wrap;rounded=0;" vertex="1" parent="WIyWlLk6GJQsqaUBKTNV-1">
          <mxGeometry x="317" y="770" width="60" height="30" as="geometry" />
        </mxCell>
        <mxCell id="9jqqhzqyvr-DAFX3ICBT-40" value="Да" style="text;html=1;align=center;verticalAlign=middle;whiteSpace=wrap;rounded=0;" vertex="1" parent="WIyWlLk6GJQsqaUBKTNV-1">
          <mxGeometry x="425" y="770" width="60" height="30" as="geometry" />
        </mxCell>
      </root>
    </mxGraphModel>
  </diagram>
</mxfile>
